<?xml version="1.0" encoding="utf-8"?>
<!-- Generator: Adobe Illustrator 19.1.0, SVG Export Plug-In . SVG Version: 6.00 Build 0)  -->
<svg version="1.1" id="Layer_1" xmlns="http://www.w3.org/2000/svg" xmlns:xlink="http://www.w3.org/1999/xlink" x="0px" y="0px"
	 viewBox="72 8 194.9 35" style="enable-background:new 72 8 194.9 35;" xml:space="preserve">
<style type="text/css">
	.st0{fill:#F9B233;}
	.st1{fill:#00163B;}
</style>
<g>
	<g>
		<path class="st0" d="M129,20.7h-1.4c-0.8-1.4-2.4-2.2-4-2.2c-2.6,0-4.6,2.1-4.6,4.7s2.1,4.6,4.7,4.6c1.7,0,3.3-0.9,4-2.5h1.6
			c-0.9,2.4-3.2,4-5.8,4c-3.3,0-6.1-2.8-6.1-6c0-1.7,0.6-3.2,1.7-4.3c1.3-1.3,2.7-2,4.4-2c1.6,0,3,0.7,4.1,1.9v-1.7h1.4V20.7z"/>
	</g>
	<g>
		<path class="st0" d="M135.4,19.8c1-1.8,2.7-2.8,4.8-2.8c1.9,0,3.9,0.8,5,2.8c0.4,0.8,1,1.8,1,3.3c0,3.4-2.6,6.1-6,6.1
			c-2,0-3.9-1-4.8-2.8v5.4h2v1.4H132v-1.4h2V18.5h-2v-1.3h3.4C135.4,17.2,135.4,19.8,135.4,19.8z M144.7,23.1c0-2.9-2.2-4.8-4.6-4.7
			c-2.5,0.1-4.8,1.8-4.8,4.7c0,2.6,2.1,4.7,4.7,4.7S144.7,25.6,144.7,23.1"/>
	</g>
	<g>
		<path class="st0" d="M151.9,19.3c0.8-1.4,2.2-2.3,3.9-2.3c1.4,0,2.6,0.6,3.5,1.6c1,1.2,1.1,2.5,1.1,4v4.9h2v1.4H157v-1.4h2v-4.2
			c0-1.1,0.1-2.2-0.5-3.2s-1.7-1.7-2.9-1.7c-1,0-2,0.4-2.6,1.2c-0.9,1-0.9,2-0.9,3.3v4.7h2V29h-5.4v-1.4h2V14.3h-2V13h3.4v6.3H151.9
			z"/>
	</g>
	<g>
		<path class="st1" d="M168.6,19.8c1-1.7,2.6-2.8,4.6-2.8c3.4,0,6.1,2.7,6.1,6.1c0,1.3-0.4,2.5-1,3.3c-0.8,1.4-2.8,2.7-5,2.7
			c-2,0-3.8-1-4.8-2.7v2.4h-3.4v-1.4h2V14.3h-2V13h3.4v6.8H168.6z M177.9,23c0-2.5-2.1-4.6-4.6-4.6c-2.6,0-4.7,2-4.7,4.6
			s2.1,4.6,4.7,4.6C175.8,27.7,177.9,25.6,177.9,23"/>
	</g>
	<g>
		<path class="st1" d="M191.7,26.9c-0.8,1.4-2.2,2.3-3.9,2.3c-1.7,0-3.3-1.1-4-2.3c-0.4-0.6-0.6-1.5-0.6-2.9v-5.5h-2v-1.3h3.4v6.3
			c0,1.1,0,2.1,0.7,3.1c0.7,0.9,1.6,1.3,2.8,1.2c1.2-0.1,2-0.6,2.6-1.3c0.8-1,0.8-1.8,0.8-3v-5h-2v-1.3h3.4v10.3h2v1.4h-3.4v-2
			H191.7z"/>
	</g>
	<g>
		<path class="st1" d="M204.2,20.1c0-0.6-0.3-1.1-0.8-1.4c-0.4-0.3-1-0.5-1.6-0.5c-1.2,0-2.3,0.7-2.3,2c0,1.5,1.4,1.8,2.6,2.1
			c0.9,0.2,1.8,0.4,2.6,0.9c0.9,0.5,1.4,1.5,1.4,2.6c0,0.8-0.2,1.3-0.5,1.8c-0.6,1.1-2,1.7-3.4,1.7s-2.5-0.5-3.2-1.7V29h-1.2v-3.3
			h1.2c0.1,1.4,1.4,2.5,3,2.5c1.3,0,2.5-0.9,2.5-2.2c0-1.6-1.4-1.9-2.7-2.2c-0.9-0.2-1.8-0.4-2.6-0.9c-0.9-0.6-1.4-1.4-1.4-2.5
			c0-0.8,0.2-1.4,0.6-2c0.7-0.9,2-1.3,3.1-1.3s2.1,0.4,2.6,1.3v-1.2h1.2v3h-1.1V20.1z"/>
	</g>
	<g>
		<path class="st1" d="M212.3,27.5h2v1.4h-5.4v-1.4h2v-8.9h-2v-1.4h3.4V27.5z M212.3,15.3h-1.5V13h1.5V15.3z"/>
	</g>
	<g>
		<path class="st1" d="M219.9,19.2c0.7-1.4,2.3-2.2,3.9-2.2c1.3,0,3.3,0.7,4,2.2c0.3,0.6,0.6,1.6,0.6,3v5.2h2v1.4H225v-1.4h2v-4.7
			c0-1,0-2-0.6-3c-0.6-1.1-1.9-1.4-3-1.4c-1,0-2.1,0.4-2.7,1.2c-0.8,0.9-0.8,1.9-0.8,3v4.9h2v1.4h-5.4v-1.4h2v-8.9h-2v-1.3h3.4V19.2
			z"/>
	</g>
	<g>
		<path class="st1" d="M243.9,25.6c-1,2.2-3.2,3.6-5.6,3.6c-3.4,0-6.1-2.7-6.1-6s2.6-6.2,6-6.2c3.5,0,6.1,2.7,6.1,6.1v0.4h-10.7
			c0.1,2.4,2.2,4.3,4.6,4.3c1.7,0,3.2-0.8,4-2.3h1.7V25.6z M243,22.3c-0.3-2.4-2.4-4-4.8-4c-2.2,0-4.2,1.8-4.5,4H243z"/>
	</g>
	<g>
		<path class="st1" d="M253.7,20.1c0-0.6-0.3-1.1-0.8-1.4c-0.4-0.3-1-0.5-1.6-0.5c-1.2,0-2.3,0.7-2.3,2c0,1.5,1.4,1.8,2.6,2.1
			c0.9,0.2,1.8,0.4,2.6,0.9c0.9,0.5,1.4,1.5,1.4,2.6c0,0.8-0.2,1.3-0.5,1.8c-0.6,1.1-2,1.7-3.4,1.7s-2.5-0.5-3.2-1.7V29h-1.2v-3.3
			h1.2c0.1,1.4,1.4,2.5,3,2.5c1.3,0,2.5-0.9,2.5-2.2c0-1.6-1.4-1.9-2.7-2.2c-0.9-0.2-1.8-0.4-2.6-0.9c-0.9-0.6-1.4-1.4-1.4-2.5
			c0-0.8,0.2-1.4,0.6-2c0.7-0.9,2-1.3,3.1-1.3s2.1,0.4,2.6,1.3v-1.2h1.2v3h-1.1V20.1z"/>
	</g>
	<g>
		<path class="st1" d="M264.9,20.1c0-0.6-0.3-1.1-0.8-1.4c-0.4-0.3-1-0.5-1.6-0.5c-1.2,0-2.3,0.7-2.3,2c0,1.5,1.4,1.8,2.6,2.1
			c0.9,0.2,1.8,0.4,2.6,0.9c0.9,0.5,1.4,1.5,1.4,2.6c0,0.8-0.2,1.3-0.5,1.8c-0.6,1.1-2,1.7-3.4,1.7s-2.5-0.5-3.2-1.7V29h-1.2v-3.3
			h1.2c0.1,1.4,1.4,2.5,3,2.5c1.3,0,2.5-0.9,2.5-2.2c0-1.6-1.4-1.9-2.7-2.2c-0.9-0.2-1.8-0.4-2.6-0.9c-0.9-0.6-1.4-1.4-1.4-2.5
			c0-0.8,0.2-1.4,0.6-2c0.7-0.9,2-1.3,3.1-1.3s2.1,0.4,2.6,1.3v-1.2h1.2v3h-1.1V20.1z"/>
	</g>
	<g>
		<path class="st1" d="M120.4,42.6c-1.1,0-1.9-0.8-1.9-1.9l0,0c0-1.1,0.8-1.9,1.9-1.9c0.7,0,1.1,0.2,1.5,0.6l-0.2,0.2
			c-0.3-0.4-0.7-0.6-1.3-0.6c-0.9,0-1.6,0.7-1.6,1.7l0,0c0,0.9,0.7,1.7,1.6,1.7c0.6,0,0.9-0.2,1.3-0.6l0.2,0.2
			C121.6,42.3,121.1,42.6,120.4,42.6"/>
	</g>
	<g>
		<path class="st1" d="M126.2,42.6c-1.2,0-1.9-0.9-1.9-1.9l0,0c0-1,0.8-1.9,2-1.9c1.2,0,1.9,0.9,1.9,1.9l0,0
			C128.1,41.6,127.4,42.6,126.2,42.6 M127.8,40.6c0-0.9-0.7-1.7-1.7-1.7s-1.6,0.7-1.6,1.7l0,0c0,0.9,0.7,1.7,1.7,1.7
			C127.1,42.3,127.8,41.6,127.8,40.6L127.8,40.6z"/>
	</g>
	<g>
		<path class="st1" d="M132.2,41.1h-1v1.4h-0.3v-3.7h1.4c0.9,0,1.4,0.4,1.4,1.1l0,0C133.7,40.7,133,41.1,132.2,41.1 M133.4,39.9
			c0-0.6-0.5-0.9-1.2-0.9h-1.1v1.8h1.1C132.9,40.8,133.4,40.5,133.4,39.9L133.4,39.9z"/>
	</g>
	<g>
		<polygon class="st1" points="136.3,42.5 136.3,38.8 139.1,38.8 139.1,39 136.6,39 136.6,40.5 138.8,40.5 138.8,40.7 136.6,40.7 
			136.6,42.2 139.1,42.2 139.1,42.5 		"/>
	</g>
	<g>
		<polygon class="st1" points="144.8,42.5 142,39.2 142,42.5 141.7,42.5 141.7,38.8 142,38.8 144.7,42 144.7,38.8 145,38.8 
			145,42.5 		"/>
	</g>
	<g>
		<polygon class="st1" points="150.6,42.5 150.6,40.7 148.2,40.7 148.2,42.5 147.9,42.5 147.9,38.8 148.2,38.8 148.2,40.5 
			150.6,40.5 150.6,38.8 150.9,38.8 150.9,42.5 		"/>
	</g>
	<g>
		<path class="st1" d="M157.1,42.5l-0.5-1h-2.3l-0.5,1h-0.3l1.8-3.7h0.3l1.8,3.7H157.1z M155.4,39l-1,2.2h2L155.4,39z"/>
	</g>
	<g>
		<path class="st1" d="M161.5,42.6c-1.2,0-2-0.9-2-1.9l0,0c0-1,0.8-1.9,1.9-1.9c0.6,0,1,0.2,1.4,0.5l-0.2,0.2
			c-0.2-0.3-0.6-0.5-1.2-0.5c-0.9,0-1.6,0.8-1.6,1.7l0,0c0,1,0.6,1.7,1.7,1.7c0.5,0,1-0.2,1.2-0.4v-1.1h-1.3v-0.3h1.6V42
			C162.7,42.3,162.1,42.6,161.5,42.6"/>
	</g>
	<g>
		<polygon class="st1" points="165.8,42.5 165.8,38.8 168.6,38.8 168.6,39 166.1,39 166.1,40.5 168.3,40.5 168.3,40.7 166.1,40.7 
			166.1,42.2 168.6,42.2 168.6,42.5 		"/>
	</g>
	<g>
		<polygon class="st1" points="174.3,42.5 171.5,39.2 171.5,42.5 171.3,42.5 171.3,38.8 171.5,38.8 174.2,42 174.2,38.8 174.5,38.8 
			174.5,42.5 		"/>
	</g>
	<g>
		<path class="st1" d="M182.8,42.5h-1.7v-3.7h1.6c0.8,0,1.3,0.4,1.3,0.9l0,0c0,0.5-0.3,0.8-0.7,0.9c0.5,0.1,0.9,0.4,0.9,0.9l0,0
			C184.2,42.1,183.6,42.5,182.8,42.5 M183.7,39.7c0-0.4-0.4-0.7-1-0.7h-1.3v1.5h1.3C183.3,40.5,183.7,40.2,183.7,39.7L183.7,39.7z
			 M183.9,41.5c0-0.5-0.4-0.7-1.2-0.7h-1.3v1.5h1.4C183.5,42.2,183.9,41.9,183.9,41.5L183.9,41.5z"/>
	</g>
	<g>
		<path class="st1" d="M188.4,42.5c-0.9,0-1.6-0.6-1.6-1.6v-2.2h0.3v2.1c0,0.9,0.5,1.4,1.3,1.4s1.3-0.5,1.3-1.4v-2.2h0.3v2.1
			C190,42,189.3,42.5,188.4,42.5"/>
	</g>
	<g>
		<path class="st1" d="M194.1,42.5c-0.6,0-1.1-0.2-1.6-0.6l0.2-0.2c0.4,0.4,0.8,0.6,1.4,0.6c0.6,0,1-0.3,1-0.7l0,0
			c0-0.4-0.2-0.6-1.1-0.8s-1.3-0.5-1.3-1l0,0c0-0.6,0.5-1,1.2-1c0.6,0,0.9,0.1,1.3,0.5l-0.2,0.2c-0.4-0.3-0.7-0.4-1.2-0.4
			c-0.6,0-0.9,0.3-0.9,0.7l0,0c0,0.4,0.2,0.6,1.1,0.8s1.3,0.5,1.3,1l0,0C195.4,42.1,194.9,42.5,194.1,42.5"/>
	</g>
	<g>
		<rect x="198.1" y="38.8" class="st1" width="0.3" height="3.7"/>
	</g>
	<g>
		<polygon class="st1" points="204.3,42.5 201.6,39.2 201.6,42.5 201.3,42.5 201.3,38.8 201.6,38.8 204.3,42 204.3,38.8 204.6,38.8 
			204.6,42.5 		"/>
	</g>
	<g>
		<polygon class="st1" points="207.5,42.5 207.5,38.8 210.2,38.8 210.2,39 207.7,39 207.7,40.5 210,40.5 210,40.7 207.7,40.7 
			207.7,42.2 210.2,42.2 210.2,42.5 		"/>
	</g>
	<g>
		<path class="st1" d="M214.2,42.5c-0.6,0-1.1-0.2-1.6-0.6l0.2-0.2c0.4,0.4,0.8,0.6,1.4,0.6c0.6,0,1-0.3,1-0.7l0,0
			c0-0.4-0.2-0.6-1.1-0.8c-0.9-0.2-1.3-0.5-1.3-1l0,0c0-0.6,0.5-1,1.2-1c0.6,0,0.9,0.1,1.3,0.5l-0.2,0.2c-0.4-0.3-0.7-0.4-1.2-0.4
			c-0.6,0-0.9,0.3-0.9,0.7l0,0c0,0.4,0.2,0.6,1.1,0.8c0.9,0.2,1.3,0.5,1.3,1l0,0C215.5,42.1,215,42.5,214.2,42.5"/>
	</g>
	<g>
		<path class="st1" d="M219.5,42.5c-0.6,0-1.1-0.2-1.6-0.6l0.2-0.2c0.4,0.4,0.8,0.6,1.4,0.6c0.6,0,1-0.3,1-0.7l0,0
			c0-0.4-0.2-0.6-1.1-0.8c-0.9-0.2-1.3-0.5-1.3-1l0,0c0-0.6,0.5-1,1.2-1c0.6,0,0.9,0.1,1.3,0.5l-0.2,0.2c-0.4-0.3-0.7-0.4-1.2-0.4
			c-0.6,0-0.9,0.3-0.9,0.7l0,0c0,0.4,0.2,0.6,1.1,0.8c0.9,0.2,1.3,0.5,1.3,1l0,0C220.7,42.1,220.2,42.5,219.5,42.5"/>
	</g>
	<g>
		<path class="st1" d="M230,42.5l-0.5-1h-2.3l-0.5,1h-0.3l1.8-3.7h0.3l1.8,3.7H230z M228.4,39l-1,2.2h2L228.4,39z"/>
	</g>
	<g>
		<path class="st1" d="M234.4,42.6c-1.1,0-1.9-0.8-1.9-1.9l0,0c0-1.1,0.8-1.9,1.9-1.9c0.7,0,1.1,0.2,1.5,0.6l-0.2,0.2
			c-0.3-0.3-0.7-0.5-1.3-0.5c-0.9,0-1.6,0.7-1.6,1.7l0,0C232.8,41.7,233.5,42.5,234.4,42.6c0.6-0.1,0.9-0.3,1.3-0.7l0.2,0.2
			C235.6,42.3,235.1,42.6,234.4,42.6"/>
	</g>
	<g>
		<path class="st1" d="M241.7,42.5l-0.5-1H239l-0.5,1h-0.3l1.8-3.7h0.3l1.8,3.7H241.7z M240.1,39l-1,2.2h2L240.1,39z"/>
	</g>
	<g>
		<path class="st1" d="M245.9,42.5h-1.3v-3.7h1.3c1.2,0,2.1,0.8,2.1,1.8l0,0C248,41.7,247.1,42.5,245.9,42.5 M247.7,40.6
			c0-0.9-0.7-1.6-1.8-1.6h-1v3.2h1C247,42.2,247.7,41.5,247.7,40.6L247.7,40.6z"/>
	</g>
	<g>
		<polygon class="st1" points="250.7,42.5 250.7,38.8 253.5,38.8 253.5,39 251,39 251,40.5 253.2,40.5 253.2,40.7 251,40.7 
			251,42.2 253.5,42.2 253.5,42.5 		"/>
	</g>
	<g>
		<polygon class="st1" points="259.5,42.5 259.5,39.3 258,41.4 258,41.4 256.4,39.3 256.4,42.5 256.1,42.5 256.1,38.8 256.4,38.8 
			258,41 259.5,38.8 259.8,38.8 259.8,42.5 		"/>
	</g>
	<g>
		<polygon class="st1" points="264.3,41 264.3,42.5 264,42.5 264,41 262.3,38.8 262.7,38.8 264.1,40.8 265.6,38.8 265.9,38.8 		"/>
	</g>
	<g>
		<path class="st0" d="M107,43H72V8h35V43z M76.7,38.3h25.7V12.7H76.7V38.3z"/>
	</g>
</g>
</svg>
